<svg data-v-0dd9719b="" version="1.0" xmlns="http://www.w3.org/2000/svg" xmlns:xlink="http://www.w3.org/1999/xlink"
     width="680" height="500" viewBox="0 0 340.000000 250.000000" preserveAspectRatio="xMidYMid meet"
     color-interpolation-filters="sRGB" style="">
    <g data-v-0dd9719b="" fill="#333" class="icon-text-wrapper icon-svg-group iconsvg"
       transform="translate(47.790000915527344,93.39310455322266)">
        <g class="iconsvg-imagesvg" transform="translate(-40,-17)">
            <g>
                <rect fill="#333" fill-opacity="0" stroke-width="2" x="0" y="0" width="60" height="63.213789034514726"
                      class="image-rect"></rect>
                <svg x="0" y="0" width="60" height="63.213789034514726" filtersec="colorsb5095931062"
                     class="image-svg-svg primary" style="overflow: visible;">
                    <svg xmlns="http://www.w3.org/2000/svg"
                         viewBox="0.006116670090705156 0.006116670090705156 94.90999603271484 99.99388885498047">
                        <defs>
                            <linearGradient id="a7e7d890f-267e-4348-886f-350f594f2f58" x1="34.93" y1="68.73" x2="94.92"
                                            y2="68.73" gradientUnits="userSpaceOnUse">
                                <stop offset="0" stop-color="#1eedc4"></stop>
                                <stop offset="1" stop-color="#1e9eed"></stop>
                            </linearGradient>
                            <linearGradient id="b121486f6-a521-4e2f-a3d9-5c8b534b652c" x1="16.82" y1="45.25" x2="48.77"
                                            y2="87.85" gradientUnits="userSpaceOnUse">
                                <stop offset="0" stop-color="#1e9eed"></stop>
                                <stop offset="1" stop-color="#090380"></stop>
                            </linearGradient>
                            <linearGradient id="c756f81bd-29d5-43c6-aa8f-f84e21dfecfc" x1="50.23" y1="22.05" x2="102.44"
                                            y2="79.48" gradientUnits="userSpaceOnUse">
                                <stop offset="0" stop-color="#1e9eed"></stop>
                                <stop offset="1" stop-color="#090380"></stop>
                            </linearGradient>
                            <linearGradient id="df3ba3f6f-c034-4b05-9a0f-7c63ac093bf8" x1="38.39" y1="22.98" x2="18.96"
                                            y2="53.89" gradientUnits="userSpaceOnUse">
                                <stop offset="0" stop-color="#1eedc4"></stop>
                                <stop offset="1" stop-color="#1e9eed"></stop>
                            </linearGradient>
                        </defs>
                        <g>
                            <g>
                                <path d="M47.46 100a12.53 12.53 0 0 1-12.53-12.53c0-13 5.39-25.52 15.17-35.34 9.28-9.32 21.05-14.66 32.28-14.66a12.53 12.53 0 1 1 0 25.06C73.54 62.53 60 73.7 60 87.47A12.53 12.53 0 0 1 47.46 100z"
                                      opacity=".8" fill="url(#a7e7d890f-267e-4348-886f-350f594f2f58)"></path>
                                <path d="M47.46 100a12.53 12.53 0 0 1-12.53-12.53c0-13.77-13.56-24.94-22.4-24.94a12.53 12.53 0 0 1 0-25.06c11.24 0 23 5.34 32.28 14.66C54.6 62 60 74.5 60 87.47A12.53 12.53 0 0 1 47.46 100z"
                                      opacity=".8" fill="url(#b121486f6-a521-4e2f-a3d9-5c8b534b652c)"></path>
                                <path d="M82.38 62.53c-11.23 0-23-5.34-32.28-14.66-9.78-9.82-15.17-22.37-15.17-35.34a12.53 12.53 0 0 1 25.06 0C60 26.3 73.54 37.47 82.38 37.47a12.53 12.53 0 1 1 0 25.06z"
                                      opacity=".8" fill="url(#c756f81bd-29d5-43c6-aa8f-f84e21dfecfc)"></path>
                                <path d="M12.53 62.53a12.53 12.53 0 0 1 0-25.06c8.84 0 22.4-11.17 22.4-24.94a12.53 12.53 0 0 1 25.06 0c0 13-5.39 25.52-15.18 35.34-9.27 9.32-21.04 14.66-32.28 14.66z"
                                      opacity=".8" fill="url(#df3ba3f6f-c034-4b05-9a0f-7c63ac093bf8)"></path>
                            </g>
                        </g>
                    </svg>
                </svg> <!---->
            </g>
        </g>
<!--        <g transform="translate(67,19.02189540863037)">-->
<!--            <g data-gra="path-name" fill-rule="" class="tp-name iconsvg-namesvg">-->
<!--                <g transform="scale(1)">-->
<!--                    <g>-->
<!--                        <path d="M19.4-21.38L3.91-21.38 4.68-25.25 29.08-25.25 28.31-21.38 11.29-6.29 26.38-6.29 25.97-2.42 1.21-2.42 1.98-6.29 19.4-21.38ZM34.04-25.25L56.87-25.25 56.5-21.38 42.55-21.38 41.78-14.8 54.57-14.8 54.17-10.93 41.02-10.93 39.85-2.42 32.1-2.42 35.21-23.71 34.04-25.25ZM62.68-2.42L62.68-2.42Q62.11-2.42 61.63-2.62 61.14-2.82 60.8-3.19 60.46-3.55 60.34-4.05 60.22-4.56 60.38-5.12L60.38-5.12 63.08-25.25 87.48-25.25 87.08-21.38 70.06-21.38 68.12-6.29 83.2-6.29 85.14-7.82 84.37-2.42 62.68-2.42ZM92.64-27.59L101.56-27.59 98.45-6.29 101.15-2.42 93.05-2.42Q91.88-2.42 91.29-3.19 90.71-3.95 90.71-5.12L90.71-5.12 93.81-26.42 92.64-27.59ZM106.72-19.44L124.14-19.44Q125.31-19.44 125.9-18.49 126.48-17.54 126.48-16.37L126.48-16.37 124.54-2.42 107.12-2.42Q105.95-2.42 105.37-3.19 104.78-3.95 104.78-5.12L104.78-5.12 106.72-19.44ZM118.74-15.57L114.06-15.57 112.53-6.29 117.16-6.29 118.74-15.57ZM130.88-19.44L139.79-19.44 138.01-7.34 142.85-7.82 144.43-18.31 143.26-19.44 152.17-19.44 149.83-2.42 142.09-2.42 142.33-3.95 129.71-2.42 132.05-18.31 130.88-19.44ZM169.72-19.44L170.89-27.59 178.63-27.59 175.16-2.42 157.74-2.42Q156.57-2.42 155.98-3.19 155.4-3.95 155.4-5.12L155.4-5.12 157.33-19.44 169.72-19.44ZM169.35-15.57L164.47-15.57 162.98-6.29 167.9-6.29 169.35-15.57Z"-->
<!--                              transform="translate(-1.2100000381469727, 27.59000015258789)"></path>-->
<!--                    </g> &lt;!&ndash;&ndash;&gt; &lt;!&ndash;&ndash;&gt; &lt;!&ndash;&ndash;&gt; &lt;!&ndash;&ndash;&gt; &lt;!&ndash;&ndash;&gt; &lt;!&ndash;&ndash;&gt; &lt;!&ndash;&ndash;&gt;-->
<!--                </g>-->
<!--            </g> &lt;!&ndash;&ndash;&gt;-->
<!--        </g>-->
    </g>
    <defs v-gra="od"></defs>
</svg>